<?xml version="1.0" standalone="no"?>
<!DOCTYPE svg PUBLIC "-//W3C//DTD SVG 20010904//EN"
 "http://www.w3.org/TR/2001/REC-SVG-20010904/DTD/svg10.dtd">
<svg version="1.0" xmlns="http://www.w3.org/2000/svg"
 width="1280.000000pt" height="870.000000pt" viewBox="0 0 1280.000000 870.000000"
 preserveAspectRatio="xMidYMid meet">
<metadata>
Created by potrace 1.15, written by Peter Selinger 2001-2017
</metadata>
<g transform="translate(0.000000,870.000000) scale(0.100000,-0.100000)"
fill="#000000" stroke="none">
<path d="M4355 8690 c-77 -9 -261 -49 -367 -81 -76 -22 -234 -122 -329 -208
-62 -55 -218 -248 -254 -314 -32 -58 -42 -100 -60 -262 -19 -163 -41 -236 -97
-323 -52 -79 -66 -121 -59 -174 5 -37 10 -43 39 -50 17 -5 32 -12 32 -16 0 -5
-11 -46 -25 -93 -81 -274 -45 -465 119 -637 42 -43 76 -82 76 -85 0 -3 -26
-11 -57 -17 -204 -43 -352 -164 -557 -456 -13 -19 -28 -22 -162 -28 -172 -9
-164 -5 -349 -136 -132 -93 -355 -210 -810 -425 -215 -102 -313 -163 -379
-236 -81 -90 -117 -191 -136 -377 -14 -137 -23 -175 -70 -297 -104 -270 -110
-305 -340 -2250 -28 -236 -53 -442 -56 -458 -3 -15 -28 -51 -55 -81 -27 -30
-49 -60 -49 -67 0 -7 22 -92 49 -188 76 -269 105 -391 95 -401 -5 -4 -110 -13
-234 -19 -124 -6 -241 -14 -260 -17 -34 -5 -35 -7 -35 -47 -1 -23 -7 -241 -14
-485 -10 -323 -11 -446 -3 -454 11 -11 1296 -3 3692 22 1349 14 2867 29 6175
60 1708 16 2857 30 2893 36 24 4 32 10 32 25 0 27 -23 136 -81 389 -28 118
-95 413 -149 655 -254 1132 -342 1510 -360 1553 l-10 22 -530 0 c-291 0 -530
2 -530 4 0 6 86 375 200 861 188 801 218 930 224 963 l6 32 -63 0 c-76 0 -781
-25 -1282 -45 -203 -8 -468 -18 -589 -22 -212 -6 -218 -6 -213 13 3 10 15 85
27 165 23 162 22 165 -34 243 -30 43 -34 55 -30 90 5 35 0 48 -30 90 -20 27
-36 62 -36 76 0 15 16 80 36 146 29 100 37 145 46 282 13 182 9 228 -43 481
-53 256 -59 298 -69 489 -25 449 -46 594 -91 636 -8 7 -30 19 -48 25 -64 21
-66 11 -63 -237 2 -179 -1 -243 -18 -367 -12 -82 -24 -157 -27 -165 -3 -8 -13
19 -23 60 -78 338 -91 407 -105 571 -8 96 -18 188 -23 204 -26 85 -84 158
-138 171 -50 13 -54 -2 -54 -215 0 -170 3 -213 25 -319 25 -121 30 -160 20
-150 -7 7 -61 267 -80 383 -27 176 -57 309 -76 348 -14 26 -34 44 -64 59 l-45
22 -42 -31 c-34 -24 -44 -38 -46 -65 -2 -18 17 -168 42 -333 25 -165 50 -349
56 -410 5 -60 14 -125 20 -144 17 -62 4 -43 -48 66 -54 115 -94 234 -118 348
-8 39 -26 108 -40 155 -22 73 -33 91 -75 133 -27 26 -57 47 -68 47 -29 0 -67
-36 -85 -80 -16 -39 -15 -47 9 -173 14 -73 36 -195 50 -272 13 -77 36 -178 50
-225 132 -443 148 -512 143 -624 l-3 -69 -65 84 c-174 224 -281 295 -370 242
-44 -25 -57 -57 -36 -85 9 -13 60 -88 113 -168 96 -143 149 -240 230 -415 32
-71 59 -109 123 -180 46 -49 89 -99 96 -111 27 -40 19 -94 -31 -199 -59 -123
-207 -464 -247 -565 -16 -41 -35 -80 -41 -86 -7 -7 -116 -21 -252 -33 -271
-25 -362 -41 -405 -71 -17 -12 -35 -18 -42 -14 -38 22 -611 402 -652 433 -39
29 -56 51 -83 111 -19 41 -54 100 -78 130 -24 31 -59 85 -79 121 -25 46 -65
92 -144 166 -80 74 -125 127 -168 193 -127 197 -140 207 -309 240 -61 11 -162
32 -225 45 -63 13 -140 27 -171 30 -72 9 -79 14 -86 62 -6 46 14 93 84 191 76
107 85 136 95 316 16 271 12 257 72 330 30 35 56 76 60 91 4 14 0 90 -8 168
-9 78 -20 207 -26 287 -12 155 -26 255 -63 468 l-24 133 39 20 c67 34 85 121
53 257 -19 81 -37 114 -94 175 -87 94 -229 173 -483 271 -117 45 -165 58 -240
66 -107 11 -409 11 -513 0z m2003 -5269 c117 -70 175 -100 352 -179 178 -80
221 -96 310 -117 41 -10 79 -21 83 -25 4 -4 -30 -200 -77 -436 -137 -693 -164
-816 -178 -825 -7 -5 -23 -9 -35 -9 -13 0 -121 -9 -240 -21 -120 -11 -278 -26
-352 -33 l-134 -12 7 250 c3 138 11 296 16 351 6 55 17 177 25 270 27 318 36
390 70 606 19 119 35 221 35 227 0 21 18 13 118 -47z"/>
</g>
</svg>
