<?xml version="1.0" standalone="no"?>
<!DOCTYPE svg PUBLIC "-//W3C//DTD SVG 20010904//EN"
 "http://www.w3.org/TR/2001/REC-SVG-20010904/DTD/svg10.dtd">
<svg version="1.0" xmlns="http://www.w3.org/2000/svg"
 width="1280.000000pt" height="1208.000000pt" viewBox="0 0 1280.000000 1208.000000"
 preserveAspectRatio="xMidYMid meet">
<metadata>
Created by potrace 1.15, written by Peter Selinger 2001-2017
</metadata>
<g transform="translate(0.000000,1208.000000) scale(0.100000,-0.100000)"
fill="gold" stroke="none">
<path d="M1477 12068 c-24 -19 -83 -158 -342 -808 -128 -322 -395 -990 -593
-1485 -523 -1310 -545 -1369 -538 -1428 7 -65 40 -115 89 -137 65 -29 131 1
263 121 126 115 212 175 269 187 107 24 176 33 372 47 162 12 239 13 380 5
320 -18 602 -47 745 -76 83 -16 381 -101 648 -183 91 -28 248 -74 350 -102
267 -74 291 -82 551 -184 249 -98 327 -134 348 -159 19 -22 7 -32 -45 -40 -26
-3 -54 -11 -62 -18 -8 -7 -23 -17 -35 -23 -11 -5 -32 -30 -46 -54 -15 -24 -35
-48 -46 -52 -11 -4 -56 -8 -100 -8 -106 -1 -138 -20 -159 -92 -9 -29 -16 -78
-17 -108 0 -82 -15 -109 -110 -199 l-86 -82 -72 0 c-44 0 -83 -6 -101 -15 -69
-36 -91 -111 -45 -155 29 -28 49 -82 40 -111 -8 -23 -24 -23 -115 1 -81 21
-151 -4 -183 -64 -17 -34 -21 -57 -20 -131 2 -96 -2 -105 -48 -105 -46 0 -117
-30 -136 -58 -15 -23 -18 -45 -15 -158 l2 -130 -55 -38 c-67 -47 -131 -137
-142 -204 -15 -87 -8 -488 10 -587 9 -49 17 -104 17 -122 0 -17 9 -47 20 -66
11 -19 36 -96 56 -173 48 -189 90 -323 113 -360 18 -30 18 -31 0 -42 -11 -7
-19 -18 -19 -24 0 -7 -29 -74 -65 -149 -36 -76 -65 -144 -65 -152 0 -8 -9 -26
-20 -39 -47 -60 -50 -168 -7 -240 32 -54 114 -162 175 -231 29 -34 78 -102
109 -151 31 -50 79 -119 108 -153 30 -35 59 -80 66 -100 6 -21 18 -47 25 -58
8 -11 14 -31 15 -45 0 -14 16 -45 34 -70 19 -25 51 -72 71 -105 90 -147 372
-570 429 -645 23 -30 49 -69 58 -86 9 -17 49 -71 89 -120 88 -108 178 -229
178 -239 0 -4 23 -34 50 -67 28 -34 57 -76 65 -93 7 -18 22 -36 34 -40 11 -3
50 -42 86 -85 37 -44 115 -126 174 -182 60 -57 115 -116 124 -133 8 -16 38
-101 66 -188 83 -255 156 -394 255 -484 77 -71 142 -88 374 -102 85 -5 156
-12 159 -14 3 -3 -18 -65 -45 -139 -28 -73 -53 -149 -57 -168 -4 -19 -13 -44
-21 -55 -10 -17 -94 -291 -94 -309 0 -3 1068 -6 2374 -6 l2374 0 94 143 c52
78 124 180 159 227 200 263 385 502 484 625 62 77 138 178 170 225 32 47 72
103 90 125 18 22 40 56 50 75 10 19 34 54 53 78 19 23 49 64 66 91 17 27 48
74 68 104 178 263 365 783 393 1092 7 77 33 175 46 175 5 0 9 -11 9 -25 0 -14
11 -48 25 -75 14 -27 25 -62 25 -77 0 -15 5 -35 10 -43 9 -13 12 -12 25 4 12
16 17 17 30 6 22 -19 34 -73 45 -205 11 -137 19 -187 30 -180 4 3 11 21 14 40
4 19 10 35 14 35 4 0 15 -19 24 -42 45 -117 68 -162 95 -188 17 -16 46 -63 66
-104 19 -40 40 -77 45 -80 31 -19 89 128 99 249 6 75 18 109 34 99 14 -8 122
-227 149 -301 12 -34 30 -68 39 -76 58 -52 88 -84 92 -96 11 -31 37 -2 44 48
4 28 11 51 16 51 12 0 46 -34 76 -75 l22 -30 0 25 c0 32 -16 160 -25 194 -6
24 -3 25 45 32 69 9 75 19 46 79 -29 60 -51 182 -67 372 l-12 142 28 68 c32
76 38 137 56 503 10 220 28 335 70 454 27 80 45 105 86 122 35 15 45 40 19 50
-26 10 -17 34 15 41 20 4 32 13 35 27 2 11 6 104 8 206 4 158 8 194 27 245 35
97 35 108 -15 270 -69 223 -99 341 -140 535 -20 96 -50 229 -66 294 -17 66
-53 230 -80 365 -65 322 -112 502 -149 575 -21 41 -30 73 -30 107 0 40 -6 55
-39 96 -82 102 -231 229 -291 248 -14 4 -38 19 -54 32 -16 13 -51 35 -77 49
-74 37 -115 79 -154 156 -45 91 -45 126 1 298 42 154 45 223 24 470 -17 205
-31 269 -89 405 -109 252 -258 473 -438 646 -114 110 -314 273 -394 321 -188
114 -464 239 -666 303 -180 55 -384 95 -492 95 -118 0 -272 -66 -375 -159 -28
-26 -65 -52 -81 -58 -17 -7 -75 -29 -130 -49 -213 -78 -480 -234 -607 -355
-78 -75 -175 -215 -184 -267 -17 -104 -63 -194 -106 -212 -13 -5 -66 -27 -118
-50 -52 -23 -164 -71 -247 -106 -208 -86 -293 -148 -293 -213 0 -45 45 -120
130 -220 44 -52 80 -100 80 -108 0 -17 -36 -88 -63 -125 -18 -25 -19 -37 -14
-145 3 -65 13 -143 22 -173 18 -66 22 -326 6 -387 -12 -45 -51 -103 -123 -182
-60 -66 -101 -144 -100 -191 0 -19 12 -60 26 -90 38 -81 36 -149 -10 -263 -20
-50 -36 -100 -37 -111 0 -12 10 -59 21 -106 27 -105 51 -131 154 -160 40 -11
93 -28 118 -37 27 -10 86 -18 149 -20 88 -4 111 -1 152 16 63 28 127 27 175
-1 60 -36 119 -100 164 -180 24 -40 64 -109 90 -153 26 -44 50 -93 53 -110 3
-16 -3 -84 -14 -151 -10 -67 -22 -159 -26 -204 l-8 -83 -52 -17 c-50 -16 -70
-28 -174 -103 -43 -31 -55 -34 -144 -41 -167 -11 -235 -34 -272 -89 -12 -17
-51 -62 -87 -99 -47 -51 -71 -68 -90 -68 -31 0 -79 -23 -119 -56 -16 -13 -34
-24 -41 -24 -21 0 -158 -94 -188 -128 -15 -17 -45 -40 -65 -51 -21 -10 -74
-50 -118 -88 -44 -37 -96 -79 -117 -93 -20 -14 -100 -83 -177 -155 -78 -71
-189 -161 -246 -200 -191 -128 -345 -277 -438 -422 -49 -76 -104 -124 -165
-144 -20 -6 -56 -22 -79 -36 -55 -31 -181 -63 -248 -63 -86 0 -89 5 -96 177
-5 139 -7 153 -38 223 -73 167 -102 240 -125 321 -33 112 -74 202 -125 269
-24 32 -41 65 -41 81 0 35 26 108 48 132 14 16 17 38 15 140 -1 67 -7 163 -13
212 -6 50 -14 129 -17 178 -8 120 -5 123 138 129 61 3 116 11 122 17 6 6 25
11 43 11 17 0 43 9 57 20 14 11 38 20 54 20 20 0 39 10 58 30 22 23 36 29 52
25 16 -4 30 3 51 26 16 17 44 34 63 38 33 7 38 13 55 79 2 6 18 12 36 12 26 0
37 6 50 30 9 17 28 34 42 40 13 5 27 19 31 31 4 12 24 39 44 60 65 69 101 116
101 133 0 9 9 24 21 34 27 23 105 177 131 260 11 35 36 90 56 120 l37 55 12
236 c6 130 17 254 23 276 16 54 142 367 179 447 16 35 33 75 36 91 6 24 12 27
50 27 69 0 69 0 165 266 67 183 88 229 128 276 44 52 56 76 105 198 55 140
147 425 147 456 0 27 -63 85 -151 137 -58 34 -117 55 -282 102 -54 15 -60 19
-79 61 -32 73 -32 102 -3 198 20 62 25 90 17 98 -17 17 -70 -20 -121 -82 -24
-30 -50 -59 -58 -63 -23 -14 -43 12 -43 55 0 22 -5 48 -10 58 -13 24 -189 141
-260 173 -30 13 -91 37 -135 52 -44 15 -118 41 -164 57 -93 33 -131 29 -131
-14 0 -26 -47 -78 -71 -78 -10 0 -30 7 -46 15 -15 8 -80 33 -143 56 -63 23
-325 124 -582 225 -257 101 -502 193 -545 205 -126 35 -186 57 -423 156 -226
95 -836 391 -985 479 -44 25 -98 56 -120 67 -65 32 -303 196 -409 282 -108 86
-363 333 -392 378 l-17 29 31 25 c51 39 82 101 82 161 0 37 -4 52 -13 52 -14
0 -111 -61 -157 -99 -14 -11 -28 -21 -31 -21 -22 -1 -258 339 -319 459 -47 93
-59 134 -75 274 -16 139 -32 182 -76 204 -31 16 -91 16 -112 1z m3938 -4750
c30 -10 42 -21 49 -43 32 -110 35 -114 85 -129 26 -8 91 -30 144 -50 111 -41
135 -44 170 -16 32 25 45 25 142 -5 44 -14 83 -25 86 -25 3 0 45 36 94 80 62
56 102 84 130 91 22 6 54 15 71 20 80 24 86 10 78 -183 -7 -183 -14 -225 -66
-388 l-40 -125 -2 -215 -1 -214 -27 -10 c-22 -8 -37 -4 -79 18 -106 55 -194
54 -204 -2 -17 -90 -39 -165 -65 -217 -29 -58 -44 -82 -110 -172 -40 -55 -212
-209 -264 -235 -23 -11 -51 -31 -63 -43 -39 -38 -95 -48 -268 -46 -185 1 -269
12 -299 40 -12 11 -55 35 -96 54 -41 19 -83 43 -92 54 -22 24 -64 187 -80 310
-15 115 -4 178 56 328 79 197 156 425 156 461 0 20 -14 68 -30 109 -35 82 -33
111 9 149 14 14 57 57 95 95 43 45 77 71 91 71 11 0 29 6 39 13 19 14 19 17 0
108 -4 19 6 52 36 112 l41 85 87 -33 c48 -18 105 -39 127 -47z m6013 -745 c-3
-59 -12 -114 -22 -137 -16 -37 -18 -39 -33 -23 -12 12 -19 39 -21 86 -4 61 -1
75 24 120 44 82 58 70 52 -46z m-7633 -1117 c8 -19 24 -78 35 -130 l21 -97
-21 -33 c-23 -38 -155 -166 -170 -166 -6 0 -10 4 -10 8 0 5 -22 37 -50 71 -27
34 -50 69 -50 78 0 8 13 27 28 41 15 15 40 48 54 73 15 25 42 64 60 86 18 23
41 55 50 72 22 40 36 39 53 -3z m8586 -2978 c6 -40 18 -84 26 -96 18 -29 12
-36 -22 -28 -41 10 -65 73 -65 172 0 44 3 84 7 88 13 13 42 -61 54 -136z"/>
</g>
</svg>
