<?xml version="1.0" standalone="no"?>
<!DOCTYPE svg PUBLIC "-//W3C//DTD SVG 20010904//EN"
 "http://www.w3.org/TR/2001/REC-SVG-20010904/DTD/svg10.dtd">
<svg version="1.0" xmlns="http://www.w3.org/2000/svg"
 width="1280.000000pt" height="933.000000pt" viewBox="0 0 1280.000000 933.000000"
 preserveAspectRatio="xMidYMid meet">
<metadata>
Created by potrace 1.15, written by Peter Selinger 2001-2017
</metadata>
<g transform="translate(0.000000,933.000000) scale(0.100000,-0.100000)"
fill="gold" stroke="none">
<path d="M1363 9318 c-19 -23 -33 -112 -31 -188 2 -63 -2 -83 -23 -125 -15
-27 -34 -77 -44 -110 -9 -33 -30 -98 -47 -145 -16 -47 -34 -102 -39 -123 -5
-21 -13 -45 -18 -55 -8 -17 -82 -247 -100 -312 -34 -124 -50 -325 -39 -490 5
-69 9 -129 9 -135 0 -5 -2 -211 -4 -457 -2 -246 -6 -451 -10 -455 -11 -10 -7
-3127 3 -3413 5 -129 16 -291 24 -360 39 -322 76 -979 75 -1347 -1 -530 19
-669 112 -761 52 -52 83 -65 155 -60 52 3 70 9 101 34 50 40 96 118 112 188
19 87 30 323 31 661 0 170 5 384 10 475 30 485 42 640 62 790 22 164 22 175
25 2433 2 1329 0 2267 -5 2267 -6 0 -6 18 -1 43 12 60 11 290 -1 405 -12 107
-56 299 -74 322 -7 8 -19 35 -26 60 -15 50 -41 89 -113 169 -59 64 -97 141
-97 196 0 21 5 87 12 145 11 104 11 109 -16 206 -16 54 -29 111 -30 127 -1 31
-1 31 -13 15z"/>
<path d="M6655 8848 c-913 -102 -1744 -389 -2507 -864 -562 -351 -1112 -838
-1405 -1245 -205 -285 -340 -566 -425 -889 -25 -97 -31 -140 -35 -273 -6 -185
4 -240 70 -377 34 -70 58 -102 137 -181 101 -101 147 -130 221 -137 102 -10
203 44 454 244 147 116 224 157 311 162 121 8 158 -24 204 -173 74 -243 4
-514 -216 -847 -76 -114 -143 -177 -307 -289 -67 -46 -150 -104 -184 -130 -33
-26 -123 -84 -199 -129 -233 -141 -316 -244 -349 -434 -56 -330 64 -720 332
-1078 239 -318 700 -775 1047 -1037 839 -633 1906 -1030 3086 -1148 244 -24
843 -24 1090 0 800 78 1498 274 2185 612 1061 523 1814 1237 2255 2140 200
408 300 742 356 1180 25 196 25 651 0 855 -56 459 -178 881 -380 1312 -180
387 -485 795 -877 1173 -508 490 -1187 909 -1923 1187 -377 142 -849 261
-1286 323 -352 50 -456 55 -1035 54 -297 -1 -576 -6 -620 -11z m-1965 -2268
c91 -14 199 -69 250 -127 95 -108 147 -281 137 -458 -13 -233 -133 -428 -321
-520 -72 -36 -87 -40 -175 -43 -157 -6 -267 41 -379 163 -71 78 -106 147 -122
245 -62 374 188 730 525 749 11 0 49 -4 85 -9z"/>
<path d="M246 6967 c-9 -30 -29 -81 -46 -112 -34 -65 -37 -92 -14 -158 14 -43
14 -52 0 -110 -9 -36 -16 -105 -16 -158 0 -109 -22 -202 -76 -318 -88 -188
-83 -151 -86 -613 -2 -227 -3 -1005 -3 -1728 0 -1296 0 -1318 23 -1525 33
-311 42 -475 52 -940 8 -409 17 -510 45 -566 17 -32 82 -98 90 -91 3 3 5 0 5
-6 0 -18 76 -15 116 4 38 18 84 78 103 134 19 55 31 254 31 520 0 316 27 768
62 1030 12 94 24 2740 13 2769 -4 9 -7 162 -7 341 1 178 -3 329 -7 335 -5 5
-5 37 0 70 11 78 -6 314 -31 410 -22 84 -74 203 -118 267 -16 24 -44 90 -62
148 -29 93 -32 113 -26 177 6 68 -5 143 -25 166 -4 5 -14 -16 -23 -46z"/>
<path d="M165 670 c10 -11 20 -20 23 -20 3 0 -3 9 -13 20 -10 11 -20 20 -23
20 -3 0 3 -9 13 -20z"/>
</g>
</svg>
