<?xml version="1.0" standalone="no"?>
<!DOCTYPE svg PUBLIC "-//W3C//DTD SVG 20010904//EN"
 "http://www.w3.org/TR/2001/REC-SVG-20010904/DTD/svg10.dtd">
<svg version="1.0" xmlns="http://www.w3.org/2000/svg"
 width="1261.000000pt" height="1280.000000pt" viewBox="0 0 1261.000000 1280.000000"
 preserveAspectRatio="xMidYMid meet">
<metadata>
Created by potrace 1.15, written by Peter Selinger 2001-2017
</metadata>
<g transform="translate(0.000000,1280.000000) scale(0.100000,-0.100000)"
fill="#000000" stroke="none">
<path d="M10265 12780 c-114 -23 -250 -66 -295 -93 -359 -214 -1198 -1201
-2571 -3027 -461 -614 -1248 -1685 -1598 -2177 -40 -57 -75 -103 -77 -103 -2
0 -23 12 -45 26 -34 21 -44 24 -54 12 -6 -7 -241 -326 -520 -708 -280 -382
-717 -979 -972 -1327 -255 -348 -463 -639 -463 -648 0 -21 17 -54 43 -82 11
-13 19 -25 16 -27 -2 -2 -59 -27 -127 -56 -126 -52 -187 -73 -255 -85 -92 -15
-234 -74 -334 -138 -23 -14 -87 -63 -142 -107 -292 -235 -601 -678 -847 -1215
l-83 -180 64 -12 c255 -48 687 -66 950 -39 538 54 913 224 1152 521 152 189
235 403 278 715 26 195 21 178 61 178 59 0 165 97 548 502 500 529 1468 1610
1587 1774 33 44 37 87 14 142 l-14 35 56 69 c31 38 58 68 59 67 2 -1 -1 -106
-6 -232 -5 -127 -14 -355 -20 -508 -6 -153 -8 -287 -5 -297 5 -16 -15 -409
-85 -1650 -38 -683 -80 -1417 -91 -1612 -6 -108 -9 -204 -6 -212 22 -57 256
-106 667 -140 348 -29 615 -38 1155 -40 l540 -2 130 -56 c435 -187 895 -344
1216 -414 81 -17 157 -27 221 -28 94 -1 97 0 127 28 152 146 568 1375 966
2861 37 138 71 255 75 260 4 6 15 46 25 90 9 44 44 190 77 325 58 240 82 339
132 550 35 150 102 485 122 620 13 82 18 175 19 325 0 189 -2 218 -23 288 -29
101 -78 197 -140 273 l-49 61 44 23 c151 80 273 370 314 745 14 134 6 342 -16
405 -63 183 -462 512 -855 707 -239 118 -430 164 -554 132 -119 -30 -251 -197
-370 -472 -91 -207 -232 -674 -220 -723 5 -20 0 -24 -33 -33 -109 -31 -234
-144 -354 -324 -43 -65 -79 -122 -79 -127 0 -6 -4 -10 -8 -10 -4 0 -13 24 -19
53 -32 152 -119 320 -220 428 -50 53 -194 155 -253 179 -19 7 -37 15 -39 16
-1 1 10 20 27 41 67 88 101 222 109 443 8 218 -16 412 -73 574 -13 39 -32 82
-43 96 -25 34 -82 66 -166 91 -38 12 -78 24 -88 28 -15 5 -4 25 76 131 396
527 954 1302 1202 1671 188 279 252 396 379 696 137 323 183 542 135 637 -52
99 -172 127 -374 86z"/>
<path d="M7548 2103 c7 -3 16 -2 19 1 4 3 -2 6 -13 5 -11 0 -14 -3 -6 -6z"/>
<path d="M7593 2103 c9 -2 23 -2 30 0 6 3 -1 5 -18 5 -16 0 -22 -2 -12 -5z"/>
<path d="M7768 2093 c28 -2 76 -2 105 0 28 2 5 3 -53 3 -58 0 -81 -1 -52 -3z"/>
<path d="M8443 2083 c37 -2 96 -2 130 0 34 2 4 3 -68 3 -71 0 -99 -1 -62 -3z"/>
</g>
</svg>
