<?xml version="1.0" standalone="no"?>
<!DOCTYPE svg PUBLIC "-//W3C//DTD SVG 20010904//EN"
 "http://www.w3.org/TR/2001/REC-SVG-20010904/DTD/svg10.dtd">
<svg version="1.0" xmlns="http://www.w3.org/2000/svg"
 width="1280.000000pt" height="1122.000000pt" viewBox="0 0 1280.000000 1122.000000"
 preserveAspectRatio="xMidYMid meet">
<metadata>
Created by potrace 1.15, written by Peter Selinger 2001-2017
</metadata>
<g transform="translate(0.000000,1122.000000) scale(0.100000,-0.100000)"
fill="gold" stroke="none">
<path d="M13 11213 c-7 -2 -13 -12 -13 -20 0 -17 161 -314 573 -1053 l264
-475 954 -773 c1161 -942 1832 -1482 1839 -1482 3 0 14 15 26 33 11 17 28 44
38 59 l17 26 -588 473 c-987 794 -1864 1509 -1892 1542 -11 15 -10 18 15 28
36 13 214 59 232 59 21 0 216 -155 1673 -1325 377 -303 690 -555 696 -558 7
-5 58 53 129 145 64 83 148 183 185 222 l67 71 -456 366 c-1297 1039 -1849
1482 -1864 1497 -14 14 -19 49 -28 170 -6 84 -7 159 -2 168 6 12 288 -209
1315 -1031 989 -791 1312 -1045 1326 -1040 18 5 109 -6 159 -21 13 -4 22 -2
22 4 0 11 -68 67 -890 728 -267 214 -851 684 -1298 1044 -448 360 -826 660
-840 667 -32 14 -1309 396 -1496 448 -131 36 -141 37 -163 28z m1348 -524
c182 -51 268 -84 303 -117 l28 -27 -5 -150 c-9 -254 -35 -333 -146 -445 -73
-74 -166 -125 -356 -195 -136 -51 -201 -64 -219 -45 -22 24 -246 468 -246 489
0 14 30 38 101 81 112 70 187 137 217 196 11 21 33 77 50 124 55 155 46 143
95 135 23 -4 103 -25 178 -46z"/>
<path d="M5648 9491 c-94 -37 -113 -60 -386 -488 -151 -236 -293 -445 -336
-497 -122 -145 -132 -184 -62 -251 73 -70 199 -138 493 -264 155 -66 312 -135
350 -153 129 -61 232 -46 308 46 31 36 490 746 583 899 63 105 53 179 -38 260
-61 55 -641 425 -703 449 -60 23 -148 22 -209 -1z"/>
<path d="M6894 8896 c-60 -15 -107 -42 -150 -88 -18 -18 -132 -202 -254 -408
-123 -206 -252 -419 -287 -472 -100 -152 -113 -215 -53 -258 34 -24 179 -89
375 -166 202 -80 290 -132 327 -192 26 -42 22 -93 -23 -277 -40 -168 -48 -291
-22 -360 10 -27 25 -51 34 -53 39 -7 169 130 304 323 27 39 98 123 156 187
101 110 121 140 355 529 136 227 253 432 260 457 31 103 5 218 -69 296 -30 31
-142 104 -380 246 -187 111 -358 210 -380 220 -57 26 -132 32 -193 16z"/>
<path d="M4452 8181 c-103 -49 -212 -153 -385 -372 -156 -197 -247 -327 -247
-353 0 -41 -52 -126 -115 -189 -95 -93 -314 -457 -520 -862 -212 -416 -231
-494 -162 -640 49 -102 169 -281 347 -515 565 -745 671 -893 860 -1210 155
-258 296 -469 528 -782 196 -266 283 -395 299 -444 9 -25 1 -88 -43 -335 -144
-807 -260 -1554 -295 -1899 -27 -259 -16 -518 24 -568 9 -11 261 -13 1486 -8
1659 7 1841 10 1857 32 6 7 14 60 18 116 4 57 17 148 28 203 20 95 22 133 24
700 3 708 8 908 29 1190 31 411 24 387 154 529 47 52 102 128 141 196 36 61
88 141 117 178 29 37 49 70 45 73 -14 12 -1192 959 -1442 1159 -140 112 -292
237 -338 277 -141 125 -309 255 -772 597 -18 13 -28 26 126 -164 60 -74 215
-264 345 -422 131 -157 240 -297 244 -310 4 -12 41 -105 81 -205 41 -101 106
-272 145 -380 39 -109 86 -230 104 -270 19 -40 41 -98 50 -130 42 -143 119
-251 235 -326 40 -26 66 -50 67 -62 2 -15 -19 -36 -77 -78 -43 -32 -94 -63
-112 -69 -76 -25 -87 -31 -118 -63 -21 -21 -35 -49 -41 -77 -21 -107 -7 -810
31 -1551 8 -166 8 -203 -5 -232 -7 -19 -19 -35 -24 -35 -23 0 -31 45 -31 172
0 166 -25 456 -44 512 -10 30 -15 86 -14 182 1 187 -38 512 -99 834 -41 216
-42 222 -42 281 -1 40 -7 64 -20 80 -19 24 -23 24 -238 29 -120 3 -224 9 -230
13 -26 17 -12 33 40 45 159 37 513 278 582 397 l27 45 -43 77 c-184 338 -1103
1695 -1388 2051 -104 129 -134 148 -363 222 -96 31 -188 68 -235 95 -102 59
-167 83 -284 105 -111 21 -167 42 -176 66 -8 21 9 31 76 45 40 8 65 21 99 52
65 60 118 144 125 196 3 24 15 56 27 70 52 65 81 190 61 263 -35 124 -37 168
-8 168 30 0 169 -121 376 -327 l225 -223 115 0 c179 0 384 44 640 137 212 76
284 114 317 164 78 116 124 307 124 509 0 98 -2 108 -22 127 -144 129 -1430
690 -2018 882 -161 52 -211 58 -268 32z"/>
<path d="M7940 7824 c-51 -18 -111 -59 -138 -95 -79 -101 -1200 -1715 -1218
-1754 -29 -61 -32 -158 -8 -228 32 -96 71 -124 374 -268 151 -72 286 -139 300
-149 49 -33 95 -45 170 -44 82 0 140 22 198 72 48 42 1189 1491 1214 1542 33
68 31 187 -4 255 -38 73 -577 609 -652 649 -69 36 -168 45 -236 20z"/>
<path d="M8954 6788 c-43 -45 -1243 -1480 -1284 -1535 -30 -41 -38 -124 -17
-173 8 -20 100 -123 210 -236 174 -178 202 -203 241 -213 48 -12 94 -6 140 16
16 8 164 146 330 307 166 160 487 470 714 690 227 219 420 412 429 430 24 46
22 134 -3 174 -11 17 -129 142 -263 276 -266 269 -316 306 -411 306 -41 0 -50
-4 -86 -42z"/>
<path d="M6679 6446 c-4 -4 -541 -153 -784 -218 -127 -34 -251 -45 -312 -29
-45 12 -60 28 -126 130 -49 76 -77 90 -139 71 -63 -18 -88 -50 -88 -110 0 -43
5 -55 36 -90 114 -126 689 -476 815 -496 35 -6 38 -4 95 67 32 41 159 193 283
337 232 270 256 303 247 328 -5 14 -18 18 -27 10z"/>
<path d="M5028 6373 l-27 -68 42 -37 c23 -21 45 -38 48 -38 4 0 7 17 7 39 0
21 8 56 17 77 l16 39 -32 28 c-19 15 -36 27 -39 27 -3 0 -17 -30 -32 -67z"/>
<path d="M6361 5813 c-22 -26 -41 -50 -40 -53 0 -3 34 -32 76 -65 41 -33 89
-71 107 -85 l31 -25 -21 30 c-40 56 -64 114 -64 152 0 41 -18 84 -36 90 -7 2
-30 -18 -53 -44z"/>
<path d="M5715 5733 c11 -11 180 -148 375 -305 663 -531 1474 -1181 1775
-1423 905 -728 1694 -1363 2110 -1699 811 -656 966 -781 1444 -1169 l466 -378
100 7 c217 13 370 49 500 117 82 43 201 164 242 247 60 120 68 170 67 416 -1
121 -4 232 -8 245 -4 16 -112 108 -314 270 -169 136 -750 604 -1292 1040 -542
437 -1189 958 -1439 1159 -249 201 -561 452 -693 558 l-240 193 -43 -38 c-24
-21 -42 -42 -41 -48 1 -5 367 -302 813 -660 445 -357 1149 -922 1564 -1255
l754 -606 7 -44 c4 -25 17 -100 28 -168 23 -142 23 -142 9 -142 -27 0 -834
633 -1739 1365 -212 172 -668 540 -1015 819 l-629 507 -96 -95 c-101 -102
-150 -130 -235 -141 -148 -18 -286 79 -524 370 -91 111 -108 138 -121 189 -21
81 -45 98 -151 104 -69 4 -94 11 -158 42 -42 21 -146 66 -231 100 -85 35 -176
73 -202 86 -27 14 -48 22 -48 20 0 -2 178 -148 396 -323 2145 -1722 4089
-3286 4243 -3412 57 -48 106 -91 108 -98 5 -14 -59 -34 -190 -59 l-88 -17 -56
39 c-31 21 -275 214 -542 428 -644 516 -2134 1713 -2436 1956 -132 106 -393
316 -580 466 -369 296 -578 464 -1127 907 l-358 287 -51 0 c-72 0 -192 51
-344 145 l-30 18 20 -20z m6527 -3640 c161 -119 331 -258 376 -307 49 -53 57
-92 49 -239 -15 -278 -134 -459 -382 -577 -85 -40 -255 -100 -285 -100 -26 0
-432 316 -555 432 l-60 56 50 7 c119 16 297 79 386 135 25 17 74 59 108 95 99
103 142 219 156 420 3 50 8 109 11 133 6 51 1 53 146 -55z"/>
<path d="M9135 5333 c-16 -9 -81 -61 -143 -116 -92 -82 -111 -102 -100 -113
30 -29 262 -213 265 -210 8 8 43 289 43 349 0 64 -11 108 -28 107 -4 -1 -20
-8 -37 -17z"/>
</g>
</svg>
