<?xml version="1.0" standalone="no"?>
<!DOCTYPE svg PUBLIC "-//W3C//DTD SVG 20010904//EN"
 "http://www.w3.org/TR/2001/REC-SVG-20010904/DTD/svg10.dtd">
<svg version="1.0" xmlns="http://www.w3.org/2000/svg"
 width="1280.000000pt" height="1280.000000pt" viewBox="0 0 1280.000000 1280.000000"
 preserveAspectRatio="xMidYMid meet">
<metadata>
Created by potrace 1.15, written by Peter Selinger 2001-2017
</metadata>
<g transform="translate(0.000000,1280.000000) scale(0.100000,-0.100000)"
fill="gold" stroke="none">
<path d="M9758 11982 c-323 -213 -562 -377 -570 -391 -12 -23 -9 -27 71 -101
60 -56 81 -81 75 -91 -41 -68 -575 -753 -791 -1016 -851 -1034 -1539 -1659
-2599 -2356 -1053 -693 -1940 -1104 -4699 -2174 -418 -162 -768 -297 -778
-300 -15 -5 -17 -20 -17 -130 l0 -124 41 -54 c23 -30 46 -55 53 -55 6 0 85 29
176 65 91 36 171 65 178 65 8 0 12 -20 13 -67 0 -38 4 -147 8 -244 l8 -177
128 -341 c75 -202 132 -340 139 -338 6 2 221 57 479 122 419 106 467 120 467
138 0 11 -18 149 -41 306 -40 279 -43 293 -135 609 -53 178 -93 330 -91 337 5
11 94 42 100 34 2 -2 17 -103 35 -224 29 -207 38 -244 152 -635 66 -228 120
-415 120 -416 0 -2 914 227 917 230 4 4 -176 810 -247 1106 -34 140 -62 263
-63 273 -2 23 111 74 118 54 3 -7 43 -192 90 -412 74 -345 226 -979 237 -990
4 -4 867 210 872 216 2 2 -32 238 -75 524 l-78 520 -91 254 c-50 140 -89 255
-88 255 37 19 109 48 112 45 2 -2 38 -233 79 -514 l76 -510 92 -265 c50 -146
96 -269 100 -274 5 -6 174 32 421 94 227 57 414 104 416 105 3 2 -16 244 -24
300 -8 58 5 38 77 -127 35 -82 68 -148 74 -148 5 0 186 44 400 98 l390 99 3
114 3 114 53 -100 c29 -55 59 -101 67 -102 8 -2 181 39 384 90 l370 93 3 30
c1 16 5 53 8 83 l6 54 48 -76 49 -76 358 92 c197 51 364 96 371 100 7 5 12 30
12 63 0 30 3 54 8 54 4 0 25 -25 46 -55 22 -30 41 -55 43 -55 7 0 698 173 702
176 2 2 6 23 8 49 3 25 8 45 12 45 3 0 22 -20 41 -45 21 -26 41 -42 50 -40 8
2 152 38 318 80 352 88 352 88 352 114 0 11 3 27 7 37 5 14 12 11 42 -24 l36
-40 325 82 325 83 111 479 c813 3499 1075 4637 1068 4643 -5 5 -144 64 -309
133 l-300 125 -258 -29 c-142 -17 -260 -28 -263 -25 -4 4 114 584 143 705 3
12 1 22 -3 22 -5 0 -260 -166 -566 -368z m66 -842 c8 -8 -96 -692 -112 -732
-6 -16 -12 -14 -53 12 l-46 28 -227 -32 c-124 -18 -226 -31 -226 -29 0 3 505
654 568 731 29 37 38 43 61 37 14 -4 30 -10 35 -15z m-1089 -1467 c-15 -125
-30 -238 -33 -251 -7 -23 -8 -23 -55 14 l-47 37 -132 -22 c-72 -12 -132 -20
-134 -19 -1 2 69 82 158 178 88 96 183 203 211 237 28 35 52 61 54 59 3 -2 -7
-107 -22 -233z m-979 -905 c-4 -51 -9 -115 -12 -142 l-6 -48 -52 50 -51 51
-44 -10 c-24 -5 -48 -8 -53 -7 -4 2 24 29 64 60 40 31 91 75 113 97 21 23 41
41 43 41 2 0 1 -42 -2 -92z m-946 -785 c0 -64 -4 -113 -8 -107 -5 5 -26 32
-47 59 -21 28 -46 57 -56 66 -17 15 -14 19 39 57 31 22 60 41 65 41 4 1 7 -52
7 -116z m-930 -607 c0 -52 3 -101 6 -110 3 -9 2 -16 -3 -16 -11 0 -106 160
-99 167 10 11 81 52 89 53 4 0 7 -42 7 -94z m-936 -468 c8 -53 26 -271 22
-275 -2 -3 -106 211 -123 254 -4 11 60 52 84 53 7 0 14 -15 17 -32z"/>
<path d="M9112 5947 c-13 -14 -22 -36 -22 -54 0 -29 -3 -32 -52 -43 -29 -7
-90 -26 -135 -41 -90 -32 -113 -31 -202 8 -68 29 -76 29 -112 -6 -34 -34 -37
-64 -9 -106 11 -16 20 -36 20 -44 0 -16 -78 -88 -124 -114 -26 -15 -49 -18
-141 -15 l-109 3 -23 -34 c-36 -52 -30 -75 31 -132 30 -28 62 -66 71 -85 15
-33 15 -36 -6 -74 -29 -51 -98 -86 -189 -97 -75 -9 -92 -29 -88 -103 3 -45 3
-45 73 -82 104 -55 141 -96 160 -181 l16 -70 -28 -23 c-15 -13 -51 -35 -80
-50 -57 -30 -67 -48 -53 -109 11 -51 27 -61 103 -69 34 -4 86 -18 115 -32 44
-22 61 -39 108 -107 30 -45 66 -96 79 -112 l24 -31 -34 -43 c-43 -54 -46 -96
-9 -140 30 -36 40 -37 124 -15 35 9 77 13 94 10 17 -3 65 -31 107 -61 41 -30
113 -76 160 -103 l84 -48 5 -78 c4 -67 8 -80 30 -96 14 -11 41 -20 62 -20 31
0 44 7 74 40 20 22 45 42 54 45 10 3 62 -7 117 -23 54 -16 142 -37 196 -47
115 -21 140 -37 183 -120 22 -42 37 -58 62 -66 63 -21 122 16 122 77 0 18 4
44 10 58 9 24 15 26 63 26 30 0 94 7 143 17 49 9 102 16 117 15 41 -2 125 -43
175 -85 50 -42 82 -46 129 -17 44 27 50 58 24 136 -11 35 -21 72 -21 82 1 25
121 101 180 112 57 11 118 2 202 -30 64 -24 83 -19 117 28 39 56 37 74 -18
137 -84 96 -110 173 -75 223 28 40 73 55 184 61 l105 6 17 35 c10 19 18 49 18
67 0 28 -7 36 -57 67 -77 47 -132 101 -154 150 -18 42 -28 134 -16 153 4 5 28
16 54 23 81 21 93 33 93 90 0 56 -24 83 -87 95 -37 7 -114 43 -143 67 -9 7
-31 40 -49 73 -19 33 -48 81 -67 106 l-33 45 30 28 c36 34 38 74 6 111 -20 24
-29 27 -102 28 l-81 3 -74 62 c-41 35 -110 87 -152 115 -77 51 -78 53 -72 87
4 27 0 43 -15 62 -30 37 -62 42 -112 17 l-41 -22 -52 23 c-28 13 -120 47 -205
76 l-154 52 -21 43 c-14 29 -29 46 -46 50 -36 8 -76 -8 -89 -38 -11 -23 -15
-25 -54 -19 -23 4 -114 9 -201 13 l-160 6 -42 39 c-50 46 -98 52 -132 15z
m519 -552 c276 -48 517 -167 706 -348 104 -100 167 -194 206 -306 69 -200 24
-374 -127 -487 -74 -56 -149 -95 -241 -124 -99 -32 -341 -40 -487 -15 -323 54
-660 244 -813 459 -136 193 -170 380 -96 531 50 100 163 197 291 249 131 53
387 72 561 41z"/>
<path d="M6648 5172 c-668 -175 -915 -243 -937 -260 -29 -21 -31 -27 -31 -88
0 -65 10 -90 502 -1250 276 -651 507 -1184 512 -1184 14 0 2115 689 2145 703
18 9 30 28 43 72 10 33 18 67 18 76 0 14 -260 461 -284 486 -9 10 -177 -39
-756 -218 -410 -126 -751 -232 -758 -234 -9 -3 -43 55 -103 181 -49 103 -88
189 -85 192 3 2 273 85 599 182 326 98 608 185 625 194 32 16 41 38 57 128 6
33 -3 53 -115 245 -67 114 -128 214 -134 220 -9 10 -151 -27 -670 -173 -362
-102 -659 -184 -661 -182 -11 12 -104 222 -100 226 2 3 277 80 610 172 377
104 616 174 633 187 22 16 29 33 38 89 8 48 9 75 1 89 -35 68 -229 385 -235
384 -4 0 -415 -107 -914 -237z"/>
<path d="M4465 4625 c-313 -50 -613 -155 -804 -282 -144 -96 -235 -200 -314
-359 -75 -149 -83 -272 -33 -474 46 -184 103 -278 220 -366 117 -89 271 -152
421 -175 122 -18 411 -14 685 11 325 30 525 32 603 6 61 -20 107 -64 107 -102
0 -24 -50 -110 -84 -146 -117 -123 -436 -237 -661 -238 -121 0 -214 21 -277
61 -63 41 -155 141 -198 216 -19 34 -43 64 -53 66 -22 6 -606 -211 -643 -239
l-26 -19 18 -70 c53 -216 211 -469 374 -602 110 -89 294 -173 435 -198 87 -15
265 -22 355 -13 257 24 574 119 825 246 316 161 513 358 590 592 34 106 45
184 45 342 0 198 -27 303 -119 463 -46 81 -199 232 -286 283 -81 48 -218 96
-325 114 -107 18 -464 15 -700 -7 -308 -29 -630 -23 -630 11 0 22 135 104 234
144 89 35 250 75 341 85 72 8 184 -9 234 -35 38 -19 103 -83 140 -137 12 -18
31 -33 41 -33 31 0 512 140 542 158 27 16 28 20 28 89 0 64 -5 83 -34 141 -92
183 -261 346 -427 413 -123 49 -187 61 -364 64 -116 3 -198 0 -260 -10z"/>
</g>
</svg>
