<?xml version="1.0" standalone="no"?>
<!DOCTYPE svg PUBLIC "-//W3C//DTD SVG 20010904//EN"
 "http://www.w3.org/TR/2001/REC-SVG-20010904/DTD/svg10.dtd">
<svg version="1.0" xmlns="http://www.w3.org/2000/svg"
 width="1226.000000pt" height="1280.000000pt" viewBox="0 0 1226.000000 1280.000000"
 preserveAspectRatio="xMidYMid meet">
<metadata>
Created by potrace 1.15, written by Peter Selinger 2001-2017
</metadata>
<g transform="translate(0.000000,1280.000000) scale(0.100000,-0.100000)"
fill="gold" stroke="none">
<path d="M5755 11911 l-40 -29 -224 -793 c-123 -437 -228 -802 -233 -811 -8
-17 -94 -18 -1583 -18 l-1575 0 0 -2670 0 -2670 820 0 c451 0 820 -2 820 -4 0
-4 -204 -725 -740 -2616 -105 -371 -252 -891 -327 -1155 -75 -264 -138 -486
-140 -492 -4 -10 49 -13 245 -13 l249 0 101 109 102 109 144 518 c137 492 228
817 763 2732 l227 812 636 0 637 0 5 -602 c3 -332 4 -1147 3 -1813 l-2 -1210
36 -38 35 -37 256 0 256 0 42 36 42 36 0 1814 0 1814 667 -2 668 -3 201 -695
c524 -1804 916 -3154 942 -3240 27 -94 31 -99 133 -218 l104 -122 248 0 c136
0 247 3 247 6 0 5 -118 410 -565 1934 -114 388 -313 1065 -442 1505 -128 440
-236 808 -239 818 -5 16 38 17 800 17 l806 0 0 2670 0 2670 -1585 0 c-1499 0
-1585 1 -1593 18 -5 9 -112 366 -236 792 -125 426 -229 783 -232 792 -3 9 -24
31 -46 48 l-42 30 -175 0 -176 -1 -40 -28z"/>
</g>
</svg>
